<svg xmlns="http://www.w3.org/2000/svg" xmlns:xlink="http://www.w3.org/1999/xlink" width="40" zoomAndPan="magnify" viewBox="0 0 30 30.000001" height="40" preserveAspectRatio="xMidYMid meet" version="1.0"><defs><clipPath id="85655d37bc"><path d="M 0.484375 0 L 7 0 L 7 6 L 0.484375 6 Z M 0.484375 0 " clip-rule="nonzero"/></clipPath><clipPath id="abdb4be2d8"><path d="M 8 12 L 27 12 L 27 29.03125 L 8 29.03125 Z M 8 12 " clip-rule="nonzero"/></clipPath></defs><g clip-path="url(#85655d37bc)"><path fill="#aa8dd8" d="M 6.503906 3.226562 C 7.308594 2.417969 6.707031 0 5.34375 0 C 3.984375 0 4.085938 1.613281 4.890625 1.613281 C 5.699219 1.613281 5.699219 3.226562 5.699219 4.03125 C 5.699219 4.839844 6.503906 3.226562 6.503906 3.226562 Z M 3.128906 4.613281 C 3.9375 3.804688 3.332031 1.386719 1.972656 1.386719 C 0.609375 1.386719 0.710938 3 1.519531 3 C 2.324219 3 2.324219 4.613281 2.324219 5.417969 C 2.324219 6.226562 3.128906 4.613281 3.128906 4.613281 Z M 3.128906 4.613281 " fill-opacity="1" fill-rule="nonzero"/></g><g clip-path="url(#abdb4be2d8)"><path fill="#744eaa" d="M 24.402344 26.496094 C 24.554688 27.148438 25.390625 28.335938 26.039062 28.183594 C 26.691406 28.03125 26.90625 26.59375 26.753906 25.945312 C 26.601562 25.292969 25.949219 24.890625 25.300781 25.042969 C 24.652344 25.195312 24.246094 25.847656 24.402344 26.496094 Z M 20.019531 27.019531 C 20.019531 27.691406 20.566406 29.035156 21.234375 29.03125 C 21.902344 29.027344 22.441406 27.679688 22.4375 27.011719 C 22.433594 26.34375 21.890625 25.804688 21.222656 25.804688 C 20.554688 25.808594 20.015625 26.351562 20.019531 27.019531 Z M 15.769531 25.046875 C 15.503906 25.664062 15.472656 27.113281 16.085938 27.378906 C 16.703125 27.640625 17.730469 26.613281 17.992188 26 C 18.253906 25.382812 17.96875 24.675781 17.355469 24.410156 C 16.742188 24.148438 16.03125 24.433594 15.769531 25.046875 Z M 11.710938 16.144531 C 11.054688 16.28125 9.847656 17.089844 9.984375 17.742188 C 10.125 18.398438 11.554688 18.648438 12.207031 18.511719 C 12.863281 18.375 13.28125 17.730469 13.144531 17.078125 C 13.003906 16.425781 12.367188 16.007812 11.710938 16.144531 Z M 10.066406 12.113281 C 9.414062 12.25 8.207031 13.058594 8.34375 13.710938 C 8.480469 14.363281 9.910156 14.617188 10.566406 14.480469 C 11.21875 14.34375 11.636719 13.699219 11.5 13.046875 C 11.363281 12.394531 10.722656 11.972656 10.066406 12.113281 Z M 10.066406 12.113281 " fill-opacity="1" fill-rule="nonzero"/></g><path fill="#9266cc" d="M 22.496094 27.417969 C 24.777344 27.417969 26.46875 26.710938 26.742188 26.589844 C 28.574219 25.777344 29.398438 23.632812 28.582031 21.800781 C 27.777344 19.988281 25.667969 19.160156 23.847656 19.933594 C 23.742188 19.976562 22.402344 20.457031 21.152344 19.878906 C 19.660156 19.183594 18.738281 17.207031 18.226562 15.675781 C 18.109375 15.328125 17.917969 14.648438 17.671875 13.808594 C 16.167969 8.589844 15.390625 7.128906 14.460938 5.890625 C 11.46875 1.898438 6.726562 1.617188 4.394531 2.085938 C 2.429688 2.480469 1.152344 4.390625 1.546875 6.355469 C 1.941406 8.324219 3.855469 9.597656 5.820312 9.203125 C 5.949219 9.183594 7.597656 8.957031 8.578125 10.144531 C 9.097656 11.183594 10.257812 14.28125 10.699219 15.820312 C 10.980469 16.785156 11.207031 17.570312 11.339844 17.96875 C 12.769531 22.257812 15.105469 25.140625 18.277344 26.542969 C 19.773438 27.199219 21.226562 27.417969 22.496094 27.417969 Z M 22.496094 27.417969 " fill-opacity="1" fill-rule="nonzero"/><path fill="#ffffff" d="M 6.71875 4.03125 C 6.71875 4.253906 6.640625 4.445312 6.484375 4.601562 C 6.324219 4.761719 6.136719 4.839844 5.914062 4.839844 C 5.691406 4.839844 5.5 4.761719 5.34375 4.601562 C 5.183594 4.445312 5.105469 4.253906 5.105469 4.03125 C 5.105469 3.808594 5.183594 3.621094 5.34375 3.460938 C 5.5 3.304688 5.691406 3.226562 5.914062 3.226562 C 6.136719 3.226562 6.324219 3.304688 6.484375 3.460938 C 6.640625 3.621094 6.71875 3.808594 6.71875 4.03125 Z M 6.71875 4.03125 " fill-opacity="1" fill-rule="nonzero"/><path fill="#744eaa" d="M 25.460938 26.582031 C 25.390625 26.582031 25.316406 26.574219 25.246094 26.554688 C 24.816406 26.433594 24.566406 25.992188 24.683594 25.5625 C 25.292969 23.367188 24.0625 21.898438 24.050781 21.882812 C 23.761719 21.546875 23.800781 21.035156 24.136719 20.746094 C 24.472656 20.457031 24.984375 20.496094 25.273438 20.832031 C 25.347656 20.921875 27.074219 22.980469 26.238281 25.992188 C 26.140625 26.351562 25.816406 26.582031 25.460938 26.582031 Z M 19.65625 26.128906 C 19.457031 26.128906 19.261719 26.058594 19.105469 25.910156 C 18.78125 25.605469 18.761719 25.097656 19.066406 24.773438 C 20.265625 23.492188 20.238281 21.390625 20.238281 21.367188 C 20.226562 20.921875 20.574219 20.550781 21.023438 20.539062 C 21.457031 20.535156 21.839844 20.878906 21.851562 21.324219 C 21.855469 21.433594 21.910156 24.09375 20.246094 25.875 C 20.085938 26.042969 19.871094 26.128906 19.65625 26.128906 Z M 12.769531 19.117188 C 12.378906 19.117188 12.039062 18.835938 11.972656 18.441406 C 11.902344 18.003906 12.199219 17.585938 12.636719 17.515625 C 15.117188 17.105469 16.488281 15.597656 16.5 15.582031 C 16.796875 15.253906 17.304688 15.222656 17.636719 15.515625 C 17.96875 15.808594 18.003906 16.316406 17.710938 16.648438 C 17.640625 16.730469 15.972656 18.597656 12.902344 19.105469 C 12.855469 19.113281 12.8125 19.117188 12.769531 19.117188 Z M 15.125 23.035156 C 14.78125 23.035156 14.464844 22.816406 14.355469 22.472656 C 14.21875 22.046875 14.457031 21.59375 14.878906 21.457031 C 17.050781 20.769531 18.007812 19.175781 18.019531 19.160156 C 18.246094 18.777344 18.738281 18.648438 19.121094 18.871094 C 19.507812 19.097656 19.632812 19.59375 19.410156 19.976562 C 19.359375 20.0625 18.125 22.125 15.367188 22.996094 C 15.285156 23.023438 15.203125 23.035156 15.125 23.035156 Z M 11.398438 14.429688 C 11 14.429688 10.652344 14.132812 10.597656 13.722656 C 10.542969 13.28125 10.855469 12.878906 11.296875 12.820312 C 13.46875 12.546875 15.054688 11.230469 15.070312 11.21875 C 15.410156 10.933594 15.917969 10.972656 16.203125 11.316406 C 16.492188 11.652344 16.449219 12.160156 16.113281 12.449219 C 16.035156 12.515625 14.160156 14.085938 11.5 14.421875 C 11.464844 14.425781 11.433594 14.429688 11.398438 14.429688 Z M 9.929688 10.585938 C 9.585938 10.585938 9.269531 10.363281 9.160156 10.019531 C 9.027344 9.59375 9.261719 9.140625 9.6875 9.007812 C 12.210938 8.214844 13.117188 6.835938 13.15625 6.777344 C 13.394531 6.40625 13.890625 6.292969 14.265625 6.527344 C 14.640625 6.761719 14.757812 7.253906 14.523438 7.628906 C 14.476562 7.707031 13.308594 9.5625 10.171875 10.546875 C 10.089844 10.574219 10.007812 10.585938 9.929688 10.585938 Z M 9.929688 10.585938 " fill-opacity="1" fill-rule="nonzero"/></svg>